<?xml version="1.0" standalone="no"?>
<!DOCTYPE svg PUBLIC "-//W3C//DTD SVG 20010904//EN"
 "http://www.w3.org/TR/2001/REC-SVG-20010904/DTD/svg10.dtd">
<svg version="1.0" xmlns="http://www.w3.org/2000/svg"
 width="200.000000pt" height="200.000000pt" viewBox="0 0 200.000000 200.000000"
 preserveAspectRatio="xMidYMid meet">
<metadata>
Created by potrace 1.14, written by Peter Selinger 2001-2017
</metadata>
<g transform="translate(0.000000,200.000000) scale(0.100000,-0.100000)"
fill="#000000" stroke="none">
<path d="M1091 1877 c-10 -30 -17 -36 -47 -39 -31 -4 -37 -1 -51 26 -9 17 -17
32 -18 34 -2 2 -31 -11 -65 -28 -54 -27 -61 -34 -55 -53 3 -12 8 -29 11 -37 2
-8 -5 -26 -16 -39 -19 -22 -24 -23 -56 -13 -38 11 -40 10 -64 -68 -4 -14 -11
-32 -15 -41 -5 -13 2 -20 29 -29 33 -11 36 -15 36 -50 0 -32 -4 -39 -30 -50
-16 -7 -30 -14 -30 -16 0 -14 62 -124 70 -124 5 0 21 5 35 12 22 10 29 8 51
-13 24 -23 26 -37 9 -81 -4 -10 11 -19 52 -32 32 -10 63 -21 69 -23 7 -2 17
12 24 31 11 33 15 36 50 36 32 0 39 -4 50 -30 7 -16 15 -30 18 -30 11 0 113
53 118 62 3 5 0 23 -7 39 -11 28 -10 33 14 57 23 23 29 24 52 14 14 -7 29 -12
34 -12 4 0 15 26 25 58 10 31 20 62 23 67 2 6 -12 17 -32 24 -32 11 -35 16
-35 50 0 33 4 40 30 51 17 7 30 14 30 16 0 3 -14 32 -31 65 -22 44 -34 59 -46
55 -40 -16 -59 -15 -82 4 -21 18 -22 23 -12 52 13 37 10 40 -49 61 -25 8 -52
18 -61 22 -13 5 -20 -2 -28 -28z m61 -225 c62 -62 44 -181 -33 -212 -93 -39
-189 21 -189 118 0 45 32 100 70 120 43 22 117 10 152 -26z"/>
<path d="M1410 1342 c-30 -15 -56 -27 -58 -28 -2 -1 4 -16 12 -33 15 -29 15
-31 -8 -55 -21 -23 -26 -25 -55 -15 -18 6 -33 10 -35 8 -2 -2 -13 -30 -25 -62
l-21 -57 28 -12 c15 -7 29 -13 31 -14 1 -2 5 -18 8 -37 4 -30 1 -35 -26 -47
-17 -7 -31 -16 -31 -20 0 -4 11 -33 25 -64 l25 -57 31 17 c31 15 32 15 57 -9
22 -22 23 -29 14 -56 -6 -17 -8 -33 -4 -35 7 -4 115 -46 119 -46 0 0 6 14 12
30 6 20 17 30 30 30 10 0 27 3 35 6 12 5 19 -2 27 -25 13 -38 25 -38 90 -5 39
20 49 29 44 42 -16 38 -15 48 6 70 20 22 32 24 70 8 12 -5 21 6 37 49 28 72
28 74 -8 86 -26 10 -30 16 -30 48 0 32 4 38 30 48 l30 11 -25 58 c-14 32 -28
60 -30 62 -2 3 -18 -1 -35 -8 -29 -12 -34 -11 -57 12 -21 21 -23 29 -14 46 6
11 11 25 11 31 0 8 -98 51 -118 51 -4 0 -13 -13 -19 -30 -10 -25 -17 -30 -46
-30 -29 0 -37 5 -47 30 -7 17 -15 30 -19 29 -3 0 -31 -12 -61 -27z m200 -187
c62 -32 80 -129 35 -183 -67 -80 -187 -59 -216 37 -32 108 80 198 181 146z"/>
<path d="M588 1215 l-3 -66 -52 -23 -52 -24 -46 45 -47 45 -89 -88 -89 -88 45
-46 44 -45 -22 -57 -22 -58 -62 0 -63 0 0 -125 0 -125 65 0 c52 0 65 -3 65
-15 0 -9 9 -34 21 -57 l21 -41 -46 -46 -46 -47 90 -89 90 -89 44 43 44 43 53
-20 54 -20 3 -66 3 -66 124 0 125 0 0 63 0 62 59 26 59 26 46 -46 46 -46 85
85 c47 46 85 89 85 95 0 6 -18 28 -41 48 -22 21 -39 41 -37 45 2 4 12 31 22
60 l20 52 63 0 63 0 0 125 0 125 -62 0 -63 0 -23 56 c-25 62 -24 65 31 112 15
13 27 29 27 36 0 6 -38 50 -85 96 l-85 85 -47 -47 -46 -46 -41 18 c-23 10 -49
21 -58 24 -15 4 -18 17 -18 71 l0 65 -125 0 -124 0 -3 -65z m220 -321 c150
-62 187 -263 68 -372 -54 -50 -101 -65 -181 -60 -49 3 -72 10 -105 33 -72 50
-113 150 -96 238 10 53 59 118 113 149 56 33 140 38 201 12z"/>
</g>
</svg>
